<?xml version="1.0" standalone="no"?>
<!DOCTYPE svg PUBLIC "-//W3C//DTD SVG 20010904//EN"
 "http://www.w3.org/TR/2001/REC-SVG-20010904/DTD/svg10.dtd">
<svg version="1.0" xmlns="http://www.w3.org/2000/svg"
 width="700.000000pt" height="700.000000pt" viewBox="0 0 700.000000 700.000000"
 preserveAspectRatio="xMidYMid meet">
<metadata>
Created by potrace 1.11, written by Peter Selinger 2001-2013
</metadata>
<g transform="translate(0.000000,700.000000) scale(0.100000,-0.100000)"
fill="#000000" stroke="none">
<path d="M1263 6770 c-12 -5 -30 -21 -40 -37 -17 -26 -18 -102 -19 -1638 -1
-1164 2 -1617 10 -1637 6 -14 79 -97 161 -183 182 -190 208 -218 405 -425 85
-89 180 -188 210 -220 30 -32 123 -129 205 -215 83 -87 160 -169 173 -182 14
-14 20 -28 16 -36 -5 -6 -295 -395 -646 -863 -455 -607 -639 -860 -642 -881
-7 -64 44 -123 106 -123 13 0 547 174 1188 387 l1165 388 830 829 c457 456
838 840 847 855 17 24 18 80 18 794 0 422 3 767 8 767 4 0 25 -5 47 -10 22 -5
54 -11 70 -14 17 -3 75 -15 130 -26 55 -11 111 -23 125 -25 14 -3 59 -12 100
-20 41 -8 109 -22 150 -30 41 -8 86 -17 100 -20 14 -3 39 -8 55 -11 17 -2 66
-13 110 -22 89 -20 136 -15 167 16 47 47 46 52 -137 600 -111 335 -178 521
-192 536 -11 12 -131 68 -264 126 -134 57 -266 113 -294 126 -204 90 -252 108
-294 107 -44 -2 -45 -3 -328 -285 -156 -156 -287 -284 -291 -286 -5 -1 -36 66
-69 150 -54 134 -321 795 -521 1288 -37 91 -74 174 -82 186 -32 44 -88 56
-139 29 -30 -15 -42 -36 -111 -200 -23 -55 -48 -113 -55 -130 -8 -16 -78 -181
-155 -365 -78 -184 -151 -355 -161 -380 -11 -25 -24 -54 -29 -65 -5 -11 -39
-92 -76 -180 -36 -88 -75 -179 -85 -202 -11 -24 -24 -54 -29 -68 -9 -24 -47
12 -814 779 -443 443 -814 809 -825 815 -23 13 -67 13 -98 1z m1232 -1436
c586 -587 1065 -1068 1063 -1069 -2 -2 -84 -26 -183 -55 -99 -28 -191 -55
-205 -59 -14 -5 -43 -14 -65 -20 -190 -54 -1209 -347 -1275 -367 -46 -14 -91
-27 -100 -29 -8 -2 -78 -21 -154 -44 -76 -23 -143 -41 -147 -41 -4 0 -8 619
-8 1375 1 756 2 1375 4 1375 2 0 483 -480 1070 -1066z m1580 256 l264 -655
-283 -284 -284 -284 -306 307 c-168 168 -306 308 -306 311 0 3 57 139 126 303
69 163 200 473 291 687 91 215 168 394 171 399 6 10 -7 41 327 -784z m1460
-299 l280 -120 127 -373 c69 -205 127 -377 127 -382 1 -4 -6 -6 -14 -2 -8 3
-37 8 -63 12 -26 3 -50 8 -54 10 -4 3 -53 13 -110 24 -57 11 -148 29 -203 40
-55 11 -111 22 -125 25 -14 3 -59 12 -100 20 -41 9 -92 18 -112 22 l-38 6 0
418 c0 231 1 419 3 419 2 0 129 -54 282 -119z m-505 -1081 l0 -1100 -551 551
-551 552 548 548 c302 302 550 549 551 549 2 0 3 -495 3 -1100z m-1385 -207
c-2 -32 -7 -82 -10 -110 -3 -29 -7 -77 -10 -105 -2 -29 -7 -75 -10 -103 -2
-27 -7 -81 -10 -120 -4 -38 -7 -83 -9 -100 -2 -16 -6 -66 -10 -110 -4 -44 -9
-96 -11 -115 -2 -19 -6 -66 -9 -105 -7 -82 -15 -160 -21 -230 -3 -27 -7 -77
-10 -110 -3 -33 -7 -82 -10 -110 -3 -27 -7 -77 -10 -110 -5 -65 -11 -128 -20
-215 -3 -30 -7 -80 -10 -110 -2 -30 -6 -77 -9 -105 -6 -59 -17 -176 -21 -225
-5 -54 -17 -192 -20 -225 -14 -139 -19 -203 -18 -217 1 -28 -9 -22 -61 34 -47
52 -280 296 -481 507 -55 57 -111 116 -125 131 -14 14 -100 105 -191 201 -92
96 -184 192 -204 214 -21 22 -115 121 -209 219 -94 99 -187 196 -206 216 -19
20 -107 113 -195 205 -225 236 -226 237 -223 240 2 2 122 37 268 79 146 42
279 80 295 85 17 6 298 87 625 181 327 94 631 182 675 195 138 42 250 74 258
74 4 1 5 -25 2 -56z m782 -601 l559 -559 -674 -673 -674 -674 7 90 c4 49 8
100 10 114 2 14 7 59 10 100 9 108 14 169 20 220 2 25 7 79 10 120 3 41 8 91
10 110 2 19 7 69 10 110 3 41 7 95 10 120 5 45 11 109 20 198 2 26 7 79 10
117 8 112 16 198 20 225 3 14 7 61 10 105 4 44 8 94 9 110 2 17 6 64 10 105 9
95 14 152 21 215 3 28 7 82 10 120 2 39 8 99 11 135 4 36 8 81 10 100 3 46 3
50 8 50 3 0 256 -251 563 -558z m-1839 -1399 c19 -21 77 -83 130 -138 54 -56
165 -172 247 -259 140 -147 199 -209 297 -312 l40 -41 -879 -293 c-483 -161
-886 -297 -895 -302 -10 -5 -18 -6 -18 -2 0 10 1031 1384 1038 1384 3 0 21
-17 40 -37z"/>
</g>
</svg>
