<svg id="Capa_1" enable-background="new 0 0 512 512" height="512" viewBox="0 0 512 512" width="512" xmlns="http://www.w3.org/2000/svg"><g><path d="m204.573 111 42.143-23.881h47.857v209.884l-110.001-20.002z" fill="#ffde55"/><path d="m365.137 269.501h-131.713v75.004h100.646l85.321 85.322 53.035-53.036z" fill="#e1ebf0"/><path d="m294.574 125.001c34.463 0 62.5-28.038 62.5-62.501s-28.037-62.5-62.5-62.5-62.501 28.038-62.501 62.5c0 34.464 28.038 62.501 62.501 62.501z" fill="#b46e5a"/><circle cx="387.169" cy="451.441" fill="#03232e" r="60.559"/><circle cx="387.169" cy="451.441" fill="#b4d2d7" r="30.559"/><path d="m309.574 377c0-74.439-60.561-134.999-135-135l-20.001 135 20.001 135c74.439-.001 135-60.561 135-135z" fill="#03232e"/><path d="m174.573 242c-74.439 0-135 60.561-135 135s60.561 135 135 135z" fill="#07485e"/><path d="m279.574 377c0-57.897-47.103-104.999-105-105l-20.001 105 20.001 105c57.897-.001 105-47.103 105-105z" fill="#e1ebf0"/><path d="m174.573 272c-57.897 0-105 47.103-105 105s47.103 105 105 105z" fill="#fff5f5"/><path d="m234.574 377c0-33.084-26.916-60-60-60l-20.001 60 20.001 60c33.084 0 60-26.916 60-60z" fill="#b4d2d7"/><path d="m174.573 317c-33.084 0-60 26.916-60 60s26.916 60 60 60z" fill="#e1ebf0"/><path d="m174.573 128-20.001 91 20.001 98c16.569-.001 30-13.433 30-30.002v-175.998z" fill="#ffb655"/><path d="m144.57 145.003v141.996c0 16.57 13.432 30.002 30.002 30.002h.002v-189.001z" fill="#ffde55"/></g></svg>