<svg id="Capa_1" enable-background="new 0 0 512 512" height="512" viewBox="0 0 512 512" width="512" xmlns="http://www.w3.org/2000/svg"><g><g><path d="m361 61v60c0 8.28-6.72 15-15 15s-15-6.72-15-15v-60c0-8.27-6.73-15-15-15h-120c-8.27 0-15 6.73-15 15v60c0 8.28-6.72 15-15 15s-15-6.72-15-15v-60c0-24.81 20.19-45 45-45h120c24.81 0 45 20.19 45 45z" fill="#61729b"/></g><path d="m361 61v60c0 8.28-6.72 15-15 15s-15-6.72-15-15v-60c0-8.27-6.73-15-15-15h-60v-30h60c24.81 0 45 20.19 45 45z" fill="#47568c"/><g><path d="m377 106h-242c-74.44 0-135 60.56-135 135v180c0 41.35 33.65 75 75 75h362c41.35 0 75-33.65 75-75v-180c0-74.44-60.56-135-135-135z" fill="#ff641a"/></g><path d="m512 241v180c0 41.35-33.65 75-75 75h-181v-390h121c74.44 0 135 60.56 135 135z" fill="#f03800"/><g><path d="m256 226c-57.9 0-105 47.1-105 105s47.1 105 105 105 105-47.1 105-105-47.1-105-105-105z" fill="#edf5ff"/></g><path d="m361 331c0 57.9-47.1 105-105 105v-210c57.9 0 105 47.1 105 105z" fill="#d5e8fe"/><g><g><path d="m346 226c-8.284 0-15-6.716-15-15v-30c0-8.284 6.716-15 15-15s15 6.716 15 15v30c0 8.284-6.716 15-15 15z" fill="#d5e8fe"/></g></g><path d="m301 331c0 8.28-6.72 15-15 15h-15v15c0 8.28-6.72 15-15 15s-15-6.72-15-15v-15h-15c-8.28 0-15-6.72-15-15s6.72-15 15-15h15v-15c0-8.28 6.72-15 15-15s15 6.72 15 15v15h15c8.28 0 15 6.72 15 15z" fill="#ff641a"/><path d="m301 331c0 8.28-6.72 15-15 15h-15v15c0 8.28-6.72 15-15 15v-90c8.28 0 15 6.72 15 15v15h15c8.28 0 15 6.72 15 15z" fill="#f03800"/><g><path d="m452 241c0 8.28-6.72 15-15 15s-15-6.72-15-15c0-24.81-20.19-45-45-45h-242c-24.81 0-45 20.19-45 45 0 8.28-6.72 15-15 15s-15-6.72-15-15c0-41.35 33.65-75 75-75h242c41.35 0 75 33.65 75 75z" fill="#edf5ff"/></g><path d="m452 241c0 8.28-6.72 15-15 15s-15-6.72-15-15c0-24.81-20.19-45-45-45h-121v-30h121c41.35 0 75 33.65 75 75z" fill="#d5e8fe"/></g></svg>