<?xml version="1.0" encoding="iso-8859-1"?>
<!-- Generator: Adobe Illustrator 19.0.0, SVG Export Plug-In . SVG Version: 6.00 Build 0)  -->
<svg version="1.1" id="Capa_1" xmlns="http://www.w3.org/2000/svg" xmlns:xlink="http://www.w3.org/1999/xlink" x="0px" y="0px"
	 viewBox="0 0 511.999 511.999" style="enable-background:new 0 0 511.999 511.999;" xml:space="preserve">
<path style="fill:#C9925B;" d="M410.277,255.625l-96.83-43.302c-0.007-0.003-0.015-0.007-0.022-0.01
	c-0.869-0.387-0.943-1.574-0.124-2.059c33.081-19.52,55.346-55.417,55.625-96.542C369.345,51.965,319.353,0.872,257.608,0.011
	C194.5-0.868,143.065,50.025,143.065,112.932c0,41.454,22.339,77.685,55.633,97.327c0.819,0.483,0.745,1.667-0.124,2.055
	c-0.007,0.003-0.014,0.006-0.022,0.01l-96.83,43.302c-19.512,8.726-28.337,31.829-19.612,51.341l0,0
	c9.567,19.136,33.375,27.646,52.905,18.912l33.839-15.133v51.633c-0.188,1.538-0.295,3.101-0.295,4.687v106.072
	c0,21.374,17.488,38.862,38.862,38.862l0,0c21.374,0,38.862-17.488,38.862-38.862v-76.894c0-5.366,4.35-9.715,9.715-9.715l0,0
	c5.365,0,9.715,4.35,9.715,9.715v76.894c0,21.374,17.488,38.862,38.862,38.862l0,0c21.374,0,38.862-17.488,38.862-38.862v-106.07
	c0-1.587-0.108-3.149-0.295-4.687v-51.633l33.839,15.133c19.53,8.734,43.337,0.224,52.905-18.912l0,0
	C438.614,287.455,429.789,264.351,410.277,255.625z"/>
<path style="fill:#BF834C;" d="M229.825,229.355c-6.71,2.73-13.387,6.223-20.313,8.427c-9.807,3.121-19.809,6.561-29.411,10.306
	c-5.755,2.244-11.767,4.38-16.753,8.124c-5.997,4.502-9.348,11.925-5.803,19.043c3.194,6.411,11.888,8.94,18.492,9.193
	c9.737,0.372,21.749-0.351,21.776,13.168c0.01,4.794,0.02,9.588,0.029,14.382c0.035,16.915,0.069,33.829,0.104,50.745
	c0.043,21.111,0.086,42.222,0.129,63.333c0.038,18.62,0.076,37.24,0.114,55.86c0.019,9.443,0.039,18.884,0.058,28.326
	c0,0.036-0.022,0.631,0.001,0.637c-16.985-4.151-29.685-19.55-29.685-37.76V367.066c0-1.586,0.103-3.152,0.298-4.686v-51.634
	l-33.846,15.131c-5.211,2.328-10.732,3.43-16.202,3.43c-15.017,0-29.685-8.312-36.7-22.341
	c-8.725-19.509,0.103-42.612,19.612-51.336c0,0,96.832-43.302,96.853-43.312c0.866-0.391,0.937-1.576,0.124-2.06
	c-33.29-19.643-55.632-55.868-55.632-97.326c0-49.853,32.301-92.156,77.117-107.132c-24.329,28.635-48.534,76.149-23.866,138.826
	c4.508,11.452,11.284,21.872,19.084,31.345c3.909,4.748,8.084,9.272,12.415,13.637c7.955,8.018,18.349,14.571,14.865,27.694
	C241.056,223.426,235.351,227.108,229.825,229.355z"/>
<circle style="fill:#F1F2F2;" cx="256" cy="246.585" r="16.647"/>
<path style="fill:#DDDDDD;" d="M270.179,255.315c-2.932,4.751-8.184,7.917-14.177,7.917c-9.195,0-16.649-7.454-16.649-16.647
	c0-6.4,3.613-11.959,8.914-14.744c-1.568,2.537-2.47,5.529-2.47,8.73c0,9.193,7.454,16.647,16.649,16.647
	C265.236,257.218,267.867,256.53,270.179,255.315z"/>
<circle style="fill:#F1F2F2;" cx="256" cy="301.355" r="16.647"/>
<path style="fill:#DDDDDD;" d="M270.179,310.087c-2.932,4.751-8.184,7.917-14.177,7.917c-9.195,0-16.649-7.454-16.649-16.647
	c0-6.401,3.613-11.959,8.914-14.744c-1.568,2.537-2.47,5.529-2.47,8.73c0,9.193,7.454,16.647,16.649,16.647
	C265.236,311.99,267.867,311.303,270.179,310.087z"/>
<g>
	<circle style="fill:#965B33;" cx="209.646" cy="103.64" r="13.331"/>
	<circle style="fill:#965B33;" cx="302.354" cy="103.64" r="13.331"/>
	<path style="fill:#965B33;" d="M285.732,141.049c-5.807,11.119-17.2,18.025-29.731,18.025c-12.532,0-23.925-6.908-29.732-18.026
		c-1.975-3.782-6.641-5.247-10.424-3.271c-3.782,1.975-5.246,6.642-3.271,10.424c8.48,16.237,25.12,26.325,43.427,26.325
		c18.306,0,34.946-10.086,43.427-26.324c1.975-3.782,0.51-8.448-3.271-10.424C292.374,135.802,287.707,137.267,285.732,141.049z"/>
	<path style="fill:#965B33;" d="M157.881,315.649l-13.051,5.84l-22.907-8.816c-2.091-0.804-3.729-2.472-4.491-4.573
		c-0.762-2.102-0.577-4.429,0.505-6.387l8.93-16.12l-17.202-6.613c-2.081-0.804-3.718-2.472-4.481-4.573
		c-0.762-2.102-0.587-4.429,0.505-6.387l10.434-18.829l15.059-6.736c2.338,2.379,2.946,6.098,1.257,9.167l-8.94,16.12l17.202,6.623
		c2.091,0.804,3.729,2.472,4.491,4.563c0.762,2.102,0.577,4.429-0.505,6.387l-8.93,16.12l17.202,6.623
		C156.151,309.283,158.056,312.404,157.881,315.649z"/>
	<path style="fill:#965B33;" d="M413.109,257.04c-0.639,2.255-2.297,4.182-4.655,5.089l-17.191,6.623l8.93,16.12
		c1.081,1.947,1.267,4.285,0.505,6.376c-0.773,2.102-2.4,3.77-4.491,4.573l-17.202,6.623l8.93,16.12
		c1.926,3.471,0.897,7.787-2.266,10.033c-2.946-0.556-5.86-1.463-8.683-2.72l-3.543-1.586l-12.257-22.125
		c-1.081-1.957-1.267-4.285-0.494-6.387c0.762-2.102,2.4-3.77,4.481-4.564l17.202-6.623l-8.93-16.12
		c-1.081-1.957-1.267-4.285-0.505-6.387c0.762-2.102,2.4-3.77,4.481-4.573l19.931-7.663l12.927,5.779
		C411.245,256.062,412.192,256.536,413.109,257.04z"/>
	<path style="fill:#965B33;" d="M246.288,433.884v18.983l-13.812,14.647c-1.463,1.545-3.491,2.42-5.624,2.42
		c-2.122,0-4.161-0.876-5.614-2.42l-13.812-14.647l-13.812,14.647c-1.463,1.545-3.492,2.42-5.624,2.42
		c-2.122,0-4.161-0.876-5.614-2.42l-13.812-14.637v-18.994c2.05,0,4.099,0.814,5.614,2.431l13.812,14.637l13.812-14.637
		c1.463-1.555,3.492-2.431,5.614-2.431c2.132,0,4.161,0.876,5.624,2.431l13.812,14.637l13.812-14.637
		C242.178,434.698,244.227,433.884,246.288,433.884z"/>
	<path style="fill:#965B33;" d="M343.438,433.905v18.736l-13.504,14.781c-1.463,1.607-3.533,2.513-5.707,2.513
		c-2.163,0-4.233-0.906-5.696-2.513l-13.112-14.358l-13.112,14.358c-1.463,1.607-3.533,2.513-5.707,2.513
		c-1.081,0-2.142-0.227-3.111-0.659c-0.978-0.422-1.864-1.05-2.596-1.854l-15.182-16.625v-16.635
		c2.72-0.752,5.758,0.021,7.787,2.245l13.101,14.348l13.112-14.348c1.463-1.606,3.533-2.524,5.707-2.524
		c2.163,0,4.233,0.916,5.707,2.524l13.101,14.348l13.112-14.348C338.958,434.636,341.214,433.792,343.438,433.905z"/>
</g>
<g>
</g>
<g>
</g>
<g>
</g>
<g>
</g>
<g>
</g>
<g>
</g>
<g>
</g>
<g>
</g>
<g>
</g>
<g>
</g>
<g>
</g>
<g>
</g>
<g>
</g>
<g>
</g>
<g>
</g>
</svg>
