<?xml version="1.0"?>
<svg xmlns="http://www.w3.org/2000/svg" xmlns:xlink="http://www.w3.org/1999/xlink" xmlns:svgjs="http://svgjs.com/svgjs" version="1.1" width="512" height="512" x="0" y="0" viewBox="0 0 24 24" style="enable-background:new 0 0 512 512" xml:space="preserve"><g><g xmlns="http://www.w3.org/2000/svg"><path d="m12 22c-5.5 0-10-4.5-10-10s4.5-10 10-10 10 4.5 10 10-4.5 10-10 10zm0-19c-5 0-9 4-9 9s4 9 9 9 9-4 9-9-4-9-9-9z" fill="#8981e5" data-original="#000000" style=""/></g><g xmlns="http://www.w3.org/2000/svg"><path d="m12 5c-.3 0-.5-.2-.5-.5v-4c0-.3.2-.5.5-.5s.5.2.5.5v4c0 .3-.2.5-.5.5z" fill="#8981e5" data-original="#000000" style=""/></g><g xmlns="http://www.w3.org/2000/svg"><path d="m12 5c-.3 0-.5-.2-.5-.5v-4c0-.3.2-.5.5-.5s.5.2.5.5v4c0 .3-.2.5-.5.5z" fill="#8981e5" data-original="#000000" style=""/></g><g xmlns="http://www.w3.org/2000/svg"><path d="m23.5 12.5h-4c-.3 0-.5-.2-.5-.5s.2-.5.5-.5h4c.3 0 .5.2.5.5s-.2.5-.5.5z" fill="#8981e5" data-original="#000000" style=""/></g><g xmlns="http://www.w3.org/2000/svg"><path d="m12 24c-.3 0-.5-.2-.5-.5v-4c0-.3.2-.5.5-.5s.5.2.5.5v4c0 .3-.2.5-.5.5z" fill="#8981e5" data-original="#000000" style=""/></g><g xmlns="http://www.w3.org/2000/svg"><path d="m4.5 12.5h-4c-.3 0-.5-.2-.5-.5s.2-.5.5-.5h4c.3 0 .5.2.5.5s-.2.5-.5.5z" fill="#8981e5" data-original="#000000" style=""/></g><g xmlns="http://www.w3.org/2000/svg"><path d="m12 15c-1.7 0-3-1.3-3-3s1.3-3 3-3 3 1.3 3 3-1.3 3-3 3zm0-5c-1.1 0-2 .9-2 2s.9 2 2 2 2-.9 2-2-.9-2-2-2z" fill="#8981e5" data-original="#000000" style=""/></g></g></svg>
